<svg xmlns="http://www.w3.org/2000/svg" xmlns:xlink="http://www.w3.org/1999/xlink" width="1080" zoomAndPan="magnify" viewBox="0 0 810 809.999993" height="1080" preserveAspectRatio="xMidYMid meet" version="1.0"><defs><g/></defs><g fill="#ff0000" fill-opacity="1"><g transform="translate(283.760539, 338.3122)"><g><path d="M 63.246094 -188.390625 L 1.34375 -188.390625 L 1.34375 -145.328125 L 21.53125 -145.328125 L 21.53125 0 L 64.589844 0 L 64.589844 -114.917969 C 83.96875 -88.542969 103.34375 -62.167969 122.992188 -35.792969 C 142.367188 -62.167969 162.015625 -88.542969 181.660156 -114.917969 L 181.660156 0 L 224.722656 0 L 224.722656 -188.390625 L 183.007812 -188.390625 C 162.824219 -161.476562 142.90625 -134.296875 122.992188 -107.382812 Z M 63.246094 -188.390625 "/></g></g></g><g fill="#00ffff" fill-opacity="1"><g transform="translate(310.472814, 335.032351)"><g><path d="M 63.246094 -188.390625 L 1.34375 -188.390625 L 1.34375 -145.328125 L 21.53125 -145.328125 L 21.53125 0 L 64.589844 0 L 64.589844 -114.917969 C 83.96875 -88.542969 103.34375 -62.167969 122.992188 -35.792969 C 142.367188 -62.167969 162.015625 -88.542969 181.660156 -114.917969 L 181.660156 0 L 224.722656 0 L 224.722656 -188.390625 L 183.007812 -188.390625 C 162.824219 -161.476562 142.90625 -134.296875 122.992188 -107.382812 Z M 63.246094 -188.390625 "/></g></g></g><g fill="#88ff55" fill-opacity="1"><g transform="translate(297.116677, 336.672278)"><g><path d="M 63.246094 -188.390625 L 1.34375 -188.390625 L 1.34375 -145.328125 L 21.53125 -145.328125 L 21.53125 0 L 64.589844 0 L 64.589844 -114.917969 C 83.96875 -88.542969 103.34375 -62.167969 122.992188 -35.792969 C 142.367188 -62.167969 162.015625 -88.542969 181.660156 -114.917969 L 181.660156 0 L 224.722656 0 L 224.722656 -188.390625 L 183.007812 -188.390625 C 162.824219 -161.476562 142.90625 -134.296875 122.992188 -107.382812 Z M 63.246094 -188.390625 "/></g></g></g><g fill="#ff0000" fill-opacity="1"><g transform="translate(417.24733, 580.528029)"><g/></g></g><g fill="#00ffff" fill-opacity="1"><g transform="translate(443.959605, 577.248179)"><g/></g></g><g fill="#88ff55" fill-opacity="1"><g transform="translate(430.603469, 578.888106)"><g/></g></g><g fill="#ff0000" fill-opacity="1"><g transform="translate(121.766807, 302.019294)"><g><path d="M 241.496094 0 L 241.496094 -56 L 84 -56 L 84 -244.996094 L 1.75 -244.996094 L 1.75 -188.996094 L 28 -188.996094 L 28 0 Z M 241.496094 0 "/></g></g></g><g fill="#00ffff" fill-opacity="1"><g transform="translate(156.505927, 297.753867)"><g><path d="M 241.496094 0 L 241.496094 -56 L 84 -56 L 84 -244.996094 L 1.75 -244.996094 L 1.75 -188.996094 L 28 -188.996094 L 28 0 Z M 241.496094 0 "/></g></g></g><g fill="#88ff55" fill-opacity="1"><g transform="translate(139.136367, 299.88658)"><g><path d="M 241.496094 0 L 241.496094 -56 L 84 -56 L 84 -244.996094 L 1.75 -244.996094 L 1.75 -188.996094 L 28 -188.996094 L 28 0 Z M 241.496094 0 "/></g></g></g><g fill="#ff0000" fill-opacity="1"><g transform="translate(127.759825, 463.002747)"><g><path d="M 88.675781 0 L 103.210938 -14.535156 L 103.210938 -87.222656 L 88.675781 -101.757812 L 0.726562 -101.757812 L 0.726562 -78.5 L 79.953125 -78.5 L 79.953125 -23.257812 L 34.886719 -23.257812 L 34.886719 -71.230469 L 11.628906 -71.230469 L 11.628906 0 Z M 88.675781 0 "/></g></g></g><g fill="#ff0000" fill-opacity="1"><g transform="translate(253.793795, 463.002747)"><g><path d="M 100.304688 0 L 100.304688 -23.257812 L 34.886719 -23.257812 L 34.886719 -39.25 L 85.765625 -39.25 L 85.765625 -62.507812 L 34.886719 -62.507812 L 34.886719 -78.5 L 100.304688 -78.5 L 100.304688 -101.757812 L 0.726562 -101.757812 L 0.726562 -78.5 L 11.628906 -78.5 L 11.628906 0 Z M 100.304688 0 "/></g></g></g><g fill="#ff0000" fill-opacity="1"><g transform="translate(376.920397, 463.002747)"><g><path d="M 50.296875 0 L 76.464844 0 L 124 -101.757812 L 98.558594 -101.757812 L 78.207031 -58.292969 L 63.378906 -21.804688 L 48.554688 -58.292969 L 28.347656 -101.757812 L 1.453125 -101.757812 L 1.453125 -78.5 L 13.664062 -78.5 Z M 50.296875 0 "/></g></g></g><g fill="#ff0000" fill-opacity="1"><g transform="translate(517.927263, 463.002747)"><g><path d="M 30.527344 0 L 30.527344 -26.167969 L 7.269531 -26.167969 L 7.269531 0 Z M 30.527344 0 "/></g></g></g><g fill="#00ffff" fill-opacity="1"><g transform="translate(142.188254, 461.231165)"><g><path d="M 88.675781 0 L 103.210938 -14.535156 L 103.210938 -87.222656 L 88.675781 -101.757812 L 0.726562 -101.757812 L 0.726562 -78.5 L 79.953125 -78.5 L 79.953125 -23.257812 L 34.886719 -23.257812 L 34.886719 -71.230469 L 11.628906 -71.230469 L 11.628906 0 Z M 88.675781 0 "/></g></g></g><g fill="#00ffff" fill-opacity="1"><g transform="translate(268.222223, 461.231165)"><g><path d="M 100.304688 0 L 100.304688 -23.257812 L 34.886719 -23.257812 L 34.886719 -39.25 L 85.765625 -39.25 L 85.765625 -62.507812 L 34.886719 -62.507812 L 34.886719 -78.5 L 100.304688 -78.5 L 100.304688 -101.757812 L 0.726562 -101.757812 L 0.726562 -78.5 L 11.628906 -78.5 L 11.628906 0 Z M 100.304688 0 "/></g></g></g><g fill="#00ffff" fill-opacity="1"><g transform="translate(391.348825, 461.231165)"><g><path d="M 50.296875 0 L 76.464844 0 L 124 -101.757812 L 98.558594 -101.757812 L 78.207031 -58.292969 L 63.378906 -21.804688 L 48.554688 -58.292969 L 28.347656 -101.757812 L 1.453125 -101.757812 L 1.453125 -78.5 L 13.664062 -78.5 Z M 50.296875 0 "/></g></g></g><g fill="#00ffff" fill-opacity="1"><g transform="translate(532.355692, 461.231165)"><g><path d="M 30.527344 0 L 30.527344 -26.167969 L 7.269531 -26.167969 L 7.269531 0 Z M 30.527344 0 "/></g></g></g><g fill="#88ff55" fill-opacity="1"><g transform="translate(134.97404, 462.116957)"><g><path d="M 88.675781 0 L 103.210938 -14.535156 L 103.210938 -87.222656 L 88.675781 -101.757812 L 0.726562 -101.757812 L 0.726562 -78.5 L 79.953125 -78.5 L 79.953125 -23.257812 L 34.886719 -23.257812 L 34.886719 -71.230469 L 11.628906 -71.230469 L 11.628906 0 Z M 88.675781 0 "/></g></g></g><g fill="#88ff55" fill-opacity="1"><g transform="translate(261.008009, 462.116957)"><g><path d="M 100.304688 0 L 100.304688 -23.257812 L 34.886719 -23.257812 L 34.886719 -39.25 L 85.765625 -39.25 L 85.765625 -62.507812 L 34.886719 -62.507812 L 34.886719 -78.5 L 100.304688 -78.5 L 100.304688 -101.757812 L 0.726562 -101.757812 L 0.726562 -78.5 L 11.628906 -78.5 L 11.628906 0 Z M 100.304688 0 "/></g></g></g><g fill="#88ff55" fill-opacity="1"><g transform="translate(384.134611, 462.116957)"><g><path d="M 50.296875 0 L 76.464844 0 L 124 -101.757812 L 98.558594 -101.757812 L 78.207031 -58.292969 L 63.378906 -21.804688 L 48.554688 -58.292969 L 28.347656 -101.757812 L 1.453125 -101.757812 L 1.453125 -78.5 L 13.664062 -78.5 Z M 50.296875 0 "/></g></g></g><g fill="#88ff55" fill-opacity="1"><g transform="translate(525.141477, 462.116957)"><g><path d="M 30.527344 0 L 30.527344 -26.167969 L 7.269531 -26.167969 L 7.269531 0 Z M 30.527344 0 "/></g></g></g></svg>